<svg width="548" height="551" viewBox="0 0 548 551" fill="none" xmlns="http://www.w3.org/2000/svg">
<g id="anim_frame-experience">
<g id="light-bulb-svgrepo-com 1">
<g id="Group">
<g id="Group_2">
<path id="Vector" d="M194.5 71C126.954 71 72.0001 124.189 72.0001 189.571C72.0001 233.561 97.7653 274.476 137.936 294.769L139.154 311.292C139.393 314.558 142.315 317.07 145.7 316.781C149.074 316.549 151.613 313.712 151.374 310.447L149.909 290.565C149.753 288.452 148.44 286.576 146.469 285.656C108.672 267.922 84.2503 230.202 84.2503 189.571C84.2503 130.731 133.708 82.8573 194.5 82.8573C255.292 82.8573 304.75 130.731 304.75 189.571C304.75 232.964 277.974 271.697 236.538 288.261C234.393 289.118 232.934 291.075 232.767 293.316L230.102 329.408C229.862 332.674 232.401 335.511 235.775 335.742C235.925 335.754 236.071 335.76 236.218 335.76C239.404 335.76 242.092 333.374 242.322 330.254L244.721 297.757C288.756 278.61 317.001 236.543 317.001 189.572C317 124.189 262.046 71 194.5 71Z" fill="#4661DA"/>
</g>
</g>
<g id="Group_3">
<g id="Group_4">
<path id="Vector_2" d="M232.629 343.865L153.004 326.079C149.717 325.344 146.418 327.335 145.655 330.525C144.896 333.716 146.95 336.9 150.246 337.635L229.871 355.421C230.335 355.525 230.798 355.571 231.256 355.571C234.043 355.571 236.564 353.719 237.22 350.975C237.979 347.784 235.925 344.6 232.629 343.865Z" fill="#4661DA"/>
</g>
</g>
<g id="Group_5">
<g id="Group_6">
<path id="Vector_3" d="M232.629 367.579L153.004 349.793C149.717 349.058 146.418 351.049 145.655 354.239C144.896 357.43 146.95 360.614 150.246 361.349L229.871 379.135C230.335 379.239 230.798 379.285 231.256 379.285C234.043 379.285 236.564 377.433 237.22 374.689C237.979 371.499 235.925 368.314 232.629 367.579Z" fill="#4661DA"/>
</g>
</g>
<g id="Group_7">
<g id="Group_8">
<path id="Vector_4" d="M232.629 391.294L153.004 373.508C149.717 372.767 146.418 374.758 145.655 377.954C144.896 381.144 146.95 384.328 150.246 385.064L229.871 402.85C230.335 402.954 230.798 403 231.256 403C234.043 403 236.564 401.147 237.22 398.403C237.979 395.213 235.925 392.028 232.629 391.294Z" fill="#4661DA"/>
</g>
</g>
</g>
<g id="strobes">
<rect id="bulb-strobe1" x="65.2044" y="188.731" width="14.064" height="53.2044" rx="7.03198" transform="rotate(90 65.2044 188.731)" fill="#1A1A1A"/>
<rect id="bulb-strobe2" width="14.3634" height="52.1387" rx="7.1817" transform="matrix(-0.724531 0.689242 -0.718246 -0.695789 99.56 102.511)" fill="#1A1A1A"/>
<rect id="bulb-strobe3" x="202.11" y="66.0749" width="14.784" height="51.0749" rx="7.39201" transform="rotate(-180 202.11 66.0749)" fill="#1A1A1A"/>
<rect id="bulb-strobe4" width="14.3634" height="52.1387" rx="7.1817" transform="matrix(-0.724531 -0.689242 0.718246 -0.695789 294.794 112.411)" fill="#1A1A1A"/>
<rect id="bulb-strobe5" x="318.796" y="202.795" width="14.064" height="53.2044" rx="7.03198" transform="rotate(-90 318.796 202.795)" fill="#1A1A1A"/>
</g>
<g id="pencil-bulb">
<path id="pencil-line-bulb" d="M232 397C294 420 -34 575 391.295 504.517" stroke="#4661DA" stroke-width="5"/>
<path id="pencil-bulb_2" d="M443.898 154L467.533 158.168L410.229 483.154L391.692 506.749L386.594 478.987L443.898 154Z" fill="#1A1A1A"/>
<rect id="pencil-eraser-bulb" x="447.72" y="133" width="24" height="22" transform="rotate(9.73516 447.72 133)" fill="#A55353"/>
<rect id="pencil-sep-bulb" x="387.871" y="470.604" width="24" height="5.15351" transform="rotate(9.73516 387.871 470.604)" fill="white"/>
</g>
</g>
</svg>
